<?xml version="1.0" encoding="UTF-8"?>
<svg id="Layer_2" data-name="Layer 2" xmlns="http://www.w3.org/2000/svg" viewBox="0 0 126.6 153.69">
  <defs>
    <style>
      .cls-1 {
        fill: #e76531;
      }

      .cls-2 {
        fill: #a8542b;
      }
    </style>
  </defs>
  <g id="Layer_1-2" data-name="Layer 1">
    <g>
      <path class="cls-2" d="M10.66,88.29l83.95,48.47c14.22,8.21,31.99-2.05,31.99-18.47V21.36c0-16.41-17.77-26.67-31.99-18.47L10.66,51.36c-14.22,8.21-14.22,28.73,0,36.93Z"/>
      <path class="cls-2" d="M10.66,89.3l83.95,48.47c14.22,8.21,31.99-2.05,31.99-18.47V22.36c0-16.41-17.77-26.67-31.99-18.47L10.66,52.36c-14.22,8.21-14.22,28.73,0,36.93Z"/>
      <path class="cls-2" d="M10.66,90.3l83.95,48.47c14.22,8.21,31.99-2.05,31.99-18.47V23.36c0-16.41-17.77-26.67-31.99-18.47L10.66,53.37c-14.22,8.21-14.22,28.73,0,36.93Z"/>
      <path class="cls-2" d="M10.66,91.3l83.95,48.47c14.22,8.21,31.99-2.05,31.99-18.47V24.36c0-16.41-17.77-26.67-31.99-18.47L10.66,54.37c-14.22,8.21-14.22,28.73,0,36.93Z"/>
      <path class="cls-2" d="M10.66,92.31l83.95,48.47c14.22,8.21,31.99-2.05,31.99-18.47V25.37c0-16.41-17.77-26.67-31.99-18.47L10.66,55.37c-14.22,8.21-14.22,28.73,0,36.93Z"/>
      <path class="cls-2" d="M10.66,93.31l83.95,48.47c14.22,8.21,31.99-2.05,31.99-18.47V26.37c0-16.41-17.77-26.67-31.99-18.47L10.66,56.37c-14.22,8.21-14.22,28.73,0,36.93Z"/>
      <path class="cls-2" d="M10.66,94.31l83.95,48.47c14.22,8.21,31.99-2.05,31.99-18.47V27.37c0-16.41-17.77-26.67-31.99-18.47L10.66,57.38c-14.22,8.21-14.22,28.73,0,36.93Z"/>
      <path class="cls-2" d="M10.66,95.31l83.95,48.47c14.22,8.21,31.99-2.05,31.99-18.47V28.38c0-16.41-17.77-26.67-31.99-18.47L10.66,58.38c-14.22,8.21-14.22,28.73,0,36.93Z"/>
      <path class="cls-2" d="M10.66,96.32l83.95,48.47c14.22,8.21,31.99-2.05,31.99-18.47V29.38c0-16.41-17.77-26.67-31.99-18.47L10.66,59.38c-14.22,8.21-14.22,28.73,0,36.93Z"/>
      <path class="cls-2" d="M10.66,97.32l83.95,48.47c14.22,8.21,31.99-2.05,31.99-18.47V30.38c0-16.41-17.77-26.67-31.99-18.47L10.66,60.39c-14.22,8.21-14.22,28.73,0,36.93Z"/>
      <path class="cls-2" d="M10.66,98.32l83.95,48.47c14.22,8.21,31.99-2.05,31.99-18.47V31.38c0-16.41-17.77-26.67-31.99-18.47L10.66,61.39c-14.22,8.21-14.22,28.73,0,36.93Z"/>
      <path class="cls-2" d="M10.66,99.33l83.95,48.47c14.22,8.21,31.99-2.05,31.99-18.47V32.39c0-16.41-17.77-26.67-31.99-18.47L10.66,62.39c-14.22,8.21-14.22,28.73,0,36.93Z"/>
      <path class="cls-2" d="M10.66,100.33l83.95,48.47c14.22,8.21,31.99-2.05,31.99-18.47V33.39c0-16.41-17.77-26.67-31.99-18.47L10.66,63.4c-14.22,8.21-14.22,28.73,0,36.93Z"/>
      <path class="cls-2" d="M10.66,101.33l83.95,48.47c14.22,8.21,31.99-2.05,31.99-18.47V34.39c0-16.41-17.77-26.67-31.99-18.47L10.66,64.4c-14.22,8.21-14.22,28.73,0,36.93Z"/>
      <path class="cls-2" d="M10.66,102.33l83.95,48.47c14.22,8.21,31.99-2.05,31.99-18.47V35.4c0-16.41-17.77-26.67-31.99-18.47L10.66,65.4c-14.22,8.21-14.22,28.73,0,36.93Z"/>
    </g>
    <path class="cls-1" d="M10.66,88.29l83.95,48.47c14.22,8.21,31.99-2.05,31.99-18.47V21.36c0-16.41-17.77-26.67-31.99-18.47L10.66,51.36c-14.22,8.21-14.22,28.73,0,36.93Z"/>
  </g>
</svg>