<?xml version="1.0" encoding="UTF-8"?>
<svg id="Layer_2" data-name="Layer 2" xmlns="http://www.w3.org/2000/svg" xmlns:xlink="http://www.w3.org/1999/xlink" viewBox="0 0 131.26 117.31">
  <defs>
    <style>
      .cls-1 {
        fill: #e76531;
      }

      .cls-2 {
        fill: #343131;
      }

      .cls-3 {
        fill: #fcfaee;
      }
    </style>
  </defs>
  <g id="autocards_icon" data-name="autocards icon">
    <image width="60" height="57" transform="translate(0 0) scale(2.06)" xlink:href="../exports/refrences/cards.png"/>
    <g>
      <path class="cls-2" d="M90.12,115.06c-.96,0-1.89-.18-2.79-.54l-46.15-18.66c-3.8-1.54-5.64-5.88-4.11-9.68L69.28,6.55c1.14-2.83,3.85-4.65,6.9-4.65.95,0,1.89.18,2.79.54l46.15,18.66c3.8,1.54,5.64,5.88,4.11,9.68l-32.2,79.63c-1.14,2.83-3.85,4.65-6.9,4.65h0Z"/>
      <path class="cls-3" d="M76.17,3.39c.76,0,1.51.15,2.22.44l46.15,18.66c3.04,1.23,4.51,4.7,3.28,7.73l-32.2,79.63c-.91,2.26-3.07,3.71-5.51,3.71-.76,0-1.51-.15-2.22-.44l-46.15-18.66c-1.47-.59-2.62-1.73-3.24-3.19-.62-1.46-.63-3.07-.04-4.54L70.67,7.11c.91-2.26,3.07-3.71,5.51-3.71M76.17.39c-3.54,0-6.88,2.11-8.29,5.59l-32.2,79.63c-1.85,4.58.36,9.79,4.94,11.64l46.15,18.66c1.1.44,2.23.65,3.35.65,3.54,0,6.88-2.11,8.29-5.59l32.2-79.63c1.85-4.58-.36-9.79-4.94-11.64L79.52,1.05c-1.1-.44-2.23-.65-3.35-.65h0Z"/>
    </g>
    <g>
      <rect class="cls-1" x="1.5" y="1.5" width="73.49" height="114.31" rx="7.44" ry="7.44"/>
      <path class="cls-3" d="M67.55,3c3.27,0,5.94,2.66,5.94,5.94v99.44c0,3.27-2.66,5.94-5.94,5.94H8.94c-3.27,0-5.94-2.66-5.94-5.94V8.94c0-3.27,2.66-5.94,5.94-5.94h58.61M67.55,0H8.94C4,0,0,4,0,8.94v99.44c0,4.94,4,8.94,8.94,8.94h58.61c4.94,0,8.94-4,8.94-8.94V8.94c0-4.94-4-8.94-8.94-8.94h0Z"/>
    </g>
  </g>
</svg>