<?xml version="1.0" encoding="UTF-8"?>
<svg id="Layer_2" data-name="Layer 2" xmlns="http://www.w3.org/2000/svg" viewBox="0 0 123.93 93.24">
  <defs>
    <style>
      .cls-1 {
        fill: #e76531;
      }
    </style>
  </defs>
  <g id="bodyType">
    <g>
      <g>
        <path class="cls-1" d="M53.9,69.62c1.4-.84,2.9-1.42,4.49-1.74h-.81c-2.44,0-4-.36-5.2-1.2-1.85-1.28-2.35-3.42-2.53-5.06h-3.31c.99-1.06,2.04-1.99,3.14-2.83l-.19-3.83c-2.97,1.34-5.73,2.83-8.32,4.44-9.17-1.8-28.04-1.92-35.87,2.67-1.49.88-2.22,2.4-2.01,2.76.09.15.11.19.12.19-1.26.9-2.39,1.87-3.42,2.89,3.8,8.66,9.7,12.74,12.2,10.04-7.12-23.5,32.98-23.41,23.58.84h11.19c.34-1.38.87-2.68,1.61-3.9,1.32-2.18,3.11-3.96,5.31-5.27Z"/>
        <path class="cls-1" d="M119.59,65.76l4.35-5.19c-.43-2.96-18.03-3.88-22.1-4.85-4.12-.97-8.23-2.53-12.35-4.09-2.25-.68-4.39-1.21-6.46-1.62-.38.28-.76.56-1.16.83-1.48,1.01-3.04,1.92-4.66,2.76l-1.99,5.17c-1.22,1.61-2.6,2.75-4.7,2.86h-2.99v.18s0,.04,0,.04v.04c-.13,3.15-1.61,4.58-2.83,5.22-.49.25-1.03.44-1.64.57,2.08.22,4.03.88,5.84,1.95,2.2,1.32,3.99,3.09,5.31,5.27.74,1.22,1.27,2.53,1.61,3.9h10.74c-2.19-24.21,26.91-26.95,26.85-2.84-.01,1.2.36,1.91,1.02,2.26,2.06,1.1,5.87-.83,7.17-2.69.77-1.09,1.21-2.45,1.34-4.07-.47-2.63-1.77-4.32-3.35-5.69ZM87.75,56.67c-2.08,1.24-4.16,2.49-6.23,3.73-2.82,1.06-4.04.51-3.22-2.08.36-1.55.84-2.99,1.43-4.27,1.35-2.91,1.15-2.79,4.03-2.22,2.27.44,5.03,1.19,5.38,2.62.17.73-.33,1.46-1.39,2.21Z"/>
        <path class="cls-1" d="M100.27,62.7c-5.98,0-10.82,4.84-10.82,10.82s4.84,10.82,10.82,10.82,10.82-4.84,10.82-10.82-4.84-10.82-10.82-10.82ZM100.27,78.56c-2.77,0-5.03-2.25-5.03-5.03s2.25-5.03,5.03-5.03,5.03,2.25,5.03,5.03-2.25,5.03-5.03,5.03Z"/>
        <path class="cls-1" d="M24.06,62.7c-5.98,0-10.82,4.84-10.82,10.82s4.84,10.82,10.82,10.82,10.82-4.84,10.82-10.82-4.84-10.82-10.82-10.82ZM24.06,78.56c-2.77,0-5.03-2.25-5.03-5.03s2.25-5.03,5.03-5.03,5.03,2.25,5.03,5.03-2.25,5.03-5.03,5.03Z"/>
      </g>
      <path class="cls-1" d="M48.64,13.29c.62.48,1.33,1.01,2.14,1.59.8.58,1.51,1.4,2.14,2.47.62,1.06.93,2.6.93,4.6s-.55,3.87-1.65,5.35c-1.1,1.48-2.52,2.62-4.24,3.4-1.72.78-3.49,1.17-5.29,1.17s-3.68-.43-5.38-1.29c-1.7-.86-3.08-2.16-4.12-3.88-1.04-1.72-1.56-3.85-1.56-6.38,0-3.29,1.12-6.49,3.37-9.59,2.25-3.11,5.53-5.67,9.87-7.7,4.33-2.02,9.58-3.04,15.76-3.04s12.06.95,16.81,2.86c4.75,1.91,8.43,4.73,11.04,8.48,2.61,3.75,3.91,8.39,3.91,13.93,0,4.61-1.13,8.8-3.4,12.57-2.27,3.77-5.37,7-9.32,9.68s-8.45,4.71-13.5,6.08c-.88.24-1.5.47-1.87.69-.36.22-.56.91-.6,2.08l-.12,5.35c-.04,1-.27,1.61-.69,1.83-.42.22-1.13.33-2.14.33h-3.13c-1.48,0-2.46-.16-2.92-.48-.46-.32-.75-1.16-.87-2.53l-.42-8.66c-.12-1.52.07-2.44.57-2.74.5-.3,1.29-.69,2.38-1.17,5.53-2.25,9.9-5.63,13.08-10.17,3.19-4.53,4.78-9.62,4.78-15.28,0-2.97-.49-5.71-1.47-8.24-.98-2.53-2.56-4.55-4.72-6.08-2.17-1.52-5.03-2.29-8.6-2.29-4.13,0-7.11.62-8.93,1.87-1.83,1.24-2.74,2.37-2.74,3.37,0,.72.31,1.32.93,1.8ZM52.01,76.97c.98-1.62,2.3-2.93,3.94-3.91,1.64-.98,3.47-1.47,5.47-1.47s3.77.49,5.41,1.47c1.64.98,2.96,2.29,3.94,3.91.98,1.62,1.47,3.44,1.47,5.44s-.49,3.77-1.47,5.41c-.98,1.65-2.3,2.96-3.94,3.94-1.64.98-3.45,1.47-5.41,1.47s-3.83-.49-5.47-1.47c-1.64-.98-2.96-2.29-3.94-3.94-.98-1.64-1.47-3.45-1.47-5.41s.49-3.82,1.47-5.44Z"/>
    </g>
  </g>
</svg>