<?xml version="1.0" encoding="UTF-8"?>
<svg id="Layer_2" data-name="Layer 2" xmlns="http://www.w3.org/2000/svg" viewBox="0 0 123.93 111.15">
  <defs>
    <style>
      .cls-1 {
        fill: #e76531;
        fill-rule: evenodd;
      }
    </style>
  </defs>
  <g id="car">
    <path class="cls-1" d="M.22,66.71v39.81c0,2.56,2.07,4.63,4.63,4.63h9.97c2.26,0,4.2-1.64,4.57-3.87l2.45-14.65h80.27l2.44,14.65c.37,2.23,2.3,3.87,4.57,3.87h9.97c2.56,0,4.63-2.07,4.63-4.63v-39.81c0-7.26-2.15-14.36-6.17-20.4l-4.82-7.22c-.43-.64-.8-1.33-1.1-2.04h6.14c1.76,0,3.36-.99,4.14-2.56l1.54-3.09c1.14-2.29.21-5.07-2.07-6.21-.64-.32-1.35-.49-2.06-.49h-10.42l-1.91-9.55c-1.19-5.94-5.74-10.63-11.64-12-9.03-2.1-20.15-3.15-33.37-3.15s-24.35,1.05-33.37,3.15c-5.9,1.37-10.46,6.06-11.65,12l-1.91,9.55H4.62C2.07,24.7,0,26.78,0,29.34c0,.72.17,1.42.49,2.06l1.54,3.09c.78,1.57,2.38,2.56,4.14,2.56h6.14c-.3.71-.67,1.39-1.1,2.04l-4.82,7.22C2.36,52.35.22,59.44.22,66.71H.22ZM98.77,37.07c.43,2.14,1.13,4.21,2.1,6.16H23.06c.97-1.95,1.67-4.01,2.1-6.16l3.9-19.49c.24-1.19,1.15-2.13,2.33-2.41,8.01-1.85,18.23-2.82,30.58-2.82s22.56.96,30.58,2.83c1.18.27,2.1,1.21,2.33,2.4l3.9,19.49h0ZM21.83,74.1c5.12,0,9.26-4.15,9.26-9.26s-4.15-9.26-9.26-9.26-9.26,4.15-9.26,9.26,4.15,9.26,9.26,9.26ZM111.36,64.84c0,5.12-4.15,9.26-9.26,9.26s-9.26-4.15-9.26-9.26h0c0-5.12,4.15-9.26,9.26-9.26s9.26,4.15,9.26,9.26Z"/>
  </g>
</svg>