<?xml version="1.0" encoding="utf-8"?>
<svg x="0pt" y="0pt" width="127pt" height="96pt" viewBox="0 0 127 96" xmlns="http://www.w3.org/2000/svg" xmlns:xlink="http://www.w3.org/1999/xlink">
  <!--Generated by AMDN-->
  <g id="Layer 1"/>
  <g id="Layer 2">
    <path id="Path 2" style="fill:#fbf9ed;fill-opacity:1;fill-rule:evenodd;opacity:1;stroke:none;" d="M86.4486,58.2023 C86.9459,61.2592,87.76,64.4975,88.9037,67.8029 C94.0408,82.6492,103.882,93.2293,110.885,91.4344 C117.888,89.6395,119.4,76.1492,114.263,61.303 C113.11,57.9702,111.72,54.8524,110.178,52.0413 C109.169,52.6765,108.157,53.3086,107.16,53.9574 C105.582,54.9835,104.01,56.0941,102.203,56.8137 C98.7682,58.1822,94.7248,58.574,90.987,58.5796 C89.483,58.5818,87.9369,58.483,86.4486,58.2023 z"/>
    <path id="Path 2" style="fill:#fbf9ed;fill-opacity:1;fill-rule:evenodd;opacity:1;stroke:none;" d="M42.2155,57.0484 C41.7183,60.1053,40.9042,63.3436,39.7604,66.6491 C34.6234,81.4953,24.7821,92.0755,17.7792,90.2806 C10.7764,88.4856,9.26382,74.9953,14.4008,60.1491 C15.554,56.8163,16.9443,53.6985,18.4863,50.8875 C19.4954,51.5226,20.507,52.1548,21.5043,52.8035 C23.0819,53.8297,24.6546,54.9402,26.4608,55.6598 C29.896,57.0283,33.9394,57.4201,37.6772,57.4257 C39.1812,57.428,40.7273,57.3291,42.2155,57.0484 z"/>
    <path id="Compound Group" style="fill:#fbf9ed;fill-opacity:1;fill-rule:evenodd;opacity:1;stroke:none;" d="M91.1992,9.71052 C106.215,9.71052,118.388,21.8835,118.388,36.8995 C118.388,51.9156,106.215,64.0885,91.1992,64.0885 C76.1831,64.0885,64.0101,51.9156,64.0101,36.8995 C64.0101,21.8835,76.1831,9.71052,91.1992,9.71052 z M92.0617,22.3643 C94.831,22.3643,97.0759,24.6092,97.0759,27.3785 C97.0759,30.1477,94.831,32.3927,92.0617,32.3927 C89.2924,32.3927,87.0475,30.1477,87.0475,27.3785 C87.0475,24.6092,89.2924,22.3643,92.0617,22.3643 z M92.0617,40.5445 C94.831,40.5445,97.0759,42.7895,97.0759,45.5587 C97.0759,48.328,94.831,50.5729,92.0617,50.5729 C89.2924,50.5729,87.0475,48.328,87.0475,45.5587 C87.0475,42.7895,89.2924,40.5445,92.0617,40.5445 z M80.7773,31.8167 C83.5466,31.8167,85.7915,34.0616,85.7915,36.8309 C85.7915,39.6002,83.5466,41.8451,80.7773,41.8451 C78.008,41.8451,75.7631,39.6002,75.7631,36.8309 C75.7631,34.0616,78.008,31.8167,80.7773,31.8167 z M103.551,31.305 C106.32,31.305,108.565,33.55,108.565,36.3192 C108.565,39.0885,106.32,41.3334,103.551,41.3334 C100.781,41.3334,98.5364,39.0885,98.5364,36.3192 C98.5364,33.55,100.781,31.305,103.551,31.305 z"/>
    <path id="Compound Group" style="fill:#fbf9ed;fill-opacity:1;fill-rule:evenodd;opacity:1;stroke:none;" d="M48.9737,19.6931 C48.9737,19.6931,70.8751,19.6931,70.8751,19.6931 C70.8751,19.6931,70.8751,54.5623,70.8751,54.5623 C70.8751,54.5623,50.4688,54.5623,50.4688,54.5623 C50.9501,54.1114,51.4119,53.6276,51.8646,53.1857 C52.2111,52.8476,52.3945,52.2342,52.6632,51.823 C53.0479,51.2343,53.5735,50.7225,53.9932,50.1668 C54.1493,49.9603,54.2135,49.6908,54.365,49.4854 C54.365,49.4854,55.4378,48.0138,55.4378,48.0138 C55.6336,47.7529,55.7895,47.4091,55.952,47.124 C56.2415,46.616,56.648,46.1523,56.9006,45.6381 C57.2729,44.8802,57.5631,44.0834,57.9321,43.3261 C58.1095,42.9618,58.1787,42.4881,58.2776,42.0931 C58.3007,42.0005,58.2829,41.7306,58.3903,41.7154 C58.3902,41.0646,58.648,40.426,58.6803,39.7726 C58.7586,38.1915,58.6098,36.4808,58.237,34.9714 C56.8916,29.5235,53.5713,24.8288,49.8736,20.7391 C49.5658,20.3988,49.2686,20.0473,48.9737,19.6931 z M59,23.0193 C59,23.0193,67.9952,23.0193,67.9952,23.0193 C67.9952,23.0193,67.9952,25.7927,67.9952,25.7927 C67.9952,25.7927,59,25.7927,59,25.7927 C59,25.7927,59,23.0193,59,23.0193 z"/>
    <path id="Compound Group" style="fill:#fcfaee;fill-opacity:1;fill-rule:evenodd;opacity:1;stroke:none;" d="M35.8008,9.71052 C50.8169,9.71052,62.9899,21.8835,62.9899,36.8995 C62.9899,51.9156,50.8169,64.0885,35.8008,64.0885 C20.7848,64.0885,8.61184,51.9156,8.61184,36.8995 C8.61184,21.8835,20.7848,9.71052,35.8008,9.71052 z M35.8008,23.8866 C42.6672,23.8866,48.2335,29.4529,48.2335,36.3192 C48.2335,43.1856,42.6672,48.7519,35.8008,48.7519 C28.9345,48.7519,23.3682,43.1856,23.3682,36.3192 C23.3682,29.4529,28.9345,23.8866,35.8008,23.8866 z"/>
    <path id="Path" style="fill:#fbf9ed;fill-opacity:1;fill-rule:evenodd;opacity:1;stroke:none;" d="M35.8009,28.342 C40.2066,28.342,43.7781,31.9135,43.7781,36.3192 C43.7781,40.725,40.2066,44.2965,35.8009,44.2965 C31.3951,44.2965,27.8236,40.725,27.8236,36.3192 C27.8236,31.9135,31.3951,28.342,35.8009,28.342 z"/>
  </g>
</svg>
