<?xml version="1.0" encoding="UTF-8"?>
<svg id="Layer_2" data-name="Layer 2" xmlns="http://www.w3.org/2000/svg" viewBox="0 0 117.06 117.31">
  <defs>
    <style>
      .cls-1 {
        fill: #e76531;
      }
    </style>
  </defs>
  <g id="date">
    <g>
      <path class="cls-1" d="M117.06,63.88c-.54.76-.84,1-1.71,1.29-2.82.94-6.55.92-9.49,1.6l-2.13,8.68,7.6,6.3c.42.63.32,1.53.12,2.24s-3.73,6.79-4.36,7.65c-.75,1.04-1.27,1.34-2.58,1.1-1.54-.28-8.22-3.43-8.94-3.25-1.29.91-2.11,2.27-3.18,3.37-.82.84-3.16,2.08-2.91,3.39l3.24,8.55c.22.9-.21,1.59-.86,2.15-1.08.94-5.27,3.2-6.75,3.96-1.36.7-2.3,1.52-3.75.39l-6.25-7.44-8.43,2.06c-.63,2.84-.75,6.07-1.45,8.86-.33,1.33-.53,2.17-2.09,2.35-2.06.24-6.79.2-8.89,0-.93-.08-1.72-.32-2.14-1.26-1.01-2.28-.77-6.8-1.63-9.33l-.44-.6-8.27-2.16c-1.77,2.02-3.43,4.63-5.26,6.55-1.99,2.09-2.06,1.79-4.49.56-1.44-.73-5.88-3.13-6.89-4.08-.65-.62-.85-1.13-.72-2.03.23-1.65,3.55-8.52,3.22-9.33l-6.07-5.98-9.15,3.31c-.86.22-1.44-.15-2.03-.72-.66-.63-4.22-6.82-4.66-7.87-.8-1.92-.2-2.2,1.14-3.5.94-.91,6.35-4.86,6.48-5.51l-2.08-8.01c-.07-.35-.34-.35-.6-.44-2.54-.89-7.01-.62-9.33-1.63-.31-.14-.99-.7-1.11-.98-.26-.62-.29-9.22-.15-10.32.17-1.32,1.25-1.55,2.35-1.82,2.8-.7,6.02-.82,8.86-1.45l2.06-8.43-7.44-6.25c-1.13-1.46-.29-2.38.39-3.75.77-1.53,2.96-5.6,3.96-6.75.57-.65,1.26-1.08,2.15-.86l8.55,3.24c1.22.29,1.89-1.39,2.61-2.13,1.34-1.37,2.82-2.55,4.13-3.94l-3.29-8.91c-.16-.56-.07-1.04.14-1.57.61-1.49,7.59-4.49,9.2-5.7.72-.21,1.47.17,1.97.66l6.04,7.34,8.69-2.12c.35-.35,1.04-8.29,1.58-9.77.34-.92,1-1.34,1.95-1.45,1.96-.23,7.18-.23,9.15,0,1.57.18,1.76,1.01,2.09,2.35.7,2.8.82,6.02,1.45,8.86l8.41,2.07c.75-.19,4.45-5.37,5.4-6.36,1.51-1.58,1.82-2.02,3.93-1.05,1.51.69,6.25,3.34,7.43,4.31.65.54,1.08,1.28.86,2.15l-3.24,8.55.14.93,5.95,5.83c.72.18,7.4-2.97,8.94-3.25,1.3-.24,1.83.07,2.58,1.1.65.9,4.11,6.84,4.36,7.65.21.69.27,1.63-.13,2.25l-7.55,6.57,2.09,8.4c.34.34,8.07,1.16,9.48,1.62.88.28,1.17.55,1.71,1.29v10.44ZM56.49,25.24c-5.17.45-10.21,1.91-14.7,4.49-.96.55-4.38,2.73-4.9,3.46-.2.27-.31.3-.13.66.73,1.41,4.05,2.63,3.08,4.89-1.77,4.15-5.67-2.12-6.43-2-4.94,5.36-7.63,12.58-8.26,19.82h4.83c1.82,0,1.82,4.18,0,4.18h-4.83c.45,5.17,1.91,10.21,4.49,14.7.55.96,2.73,4.38,3.46,4.9.27.2.3.31.66.13,1.41-.73,2.63-4.05,4.89-3.08,4.15,1.77-2.12,5.67-2,6.43,5.37,4.92,12.57,7.65,19.82,8.26v-4.83c0-1.82,4.18-1.82,4.18,0v4.83c7.27-.6,14.43-3.36,19.82-8.26-1.03-1.53-5.68-4.86-2-6.43,2.26-.96,3.48,2.36,4.89,3.08.37.19.39.07.66-.13.66-.47,2.94-4,3.46-4.9,2.6-4.51,4-9.52,4.49-14.7h-4.83c-1.82,0-1.82-4.18,0-4.18h4.83c-.62-7.25-3.34-14.45-8.26-19.82-1.53,1.03-4.86,5.68-6.43,2-.96-2.26,2.36-3.48,3.08-4.89.19-.37.07-.39-.13-.66-.52-.73-3.94-2.91-4.9-3.46-4.49-2.58-9.53-4.04-14.7-4.49v4.83c0,1.82-4.18,1.82-4.18,0v-4.83Z"/>
      <path class="cls-1" d="M60.72,55.21c.07.12,1.29.72,1.43,1.36,3.55.39,8.28-.55,11.68.01,2.06.34,2.25,3.45.21,4.09l-11.89.07c-3.16,5.14-10.5-.09-6.82-4.67.43-.53,1.12-.72,1.18-1.19v-17.49c.35-2.31,3.78-2.31,4.14,0l.07,17.82Z"/>
    </g>
  </g>
</svg>