<?xml version="1.0" encoding="UTF-8"?>
<svg id="Layer_2" data-name="Layer 2" xmlns="http://www.w3.org/2000/svg" viewBox="0 0 123.93 95.4">
  <defs>
    <style>
      .cls-1 {
        fill: #e76531;
        fill-rule: evenodd;
      }
    </style>
  </defs>
  <g id="engine">
    <path class="cls-1" d="M43.95,92.99l-11.78-11.77h-8.11c-2.83,0-5.15-2.32-5.15-5.15v-8.77h-4.91v10.27c0,2.19-1.8,3.98-3.98,3.98H3.98c-2.19,0-3.98-1.8-3.98-3.98v-34.8c0-2.19,1.8-3.98,3.98-3.98h6.03c2.19,0,3.98,1.8,3.98,3.98v10.27h4.91v-9.44c0-2.83,2.32-5.15,5.15-5.15h8.61l12.17-12.94c1.41-1.23,3.29-1.66,5.48-1.57h50.16c1.73.19,3.06.86,3.86,2.11.81,1.23.68,1.93.68,3.31v23.69h4.91v-10.27c0-2.19,1.8-3.98,3.98-3.98h6.03c2.19,0,3.98,1.8,3.98,3.98v34.8c0,2.19-1.8,3.98-3.98,3.98h-6.03c-2.19,0-3.98-1.8-3.98-3.98v-10.27h-4.91v.93c0,2.75.08,4.42-1.67,6.7-.33.43-.71.85-1.12,1.23l-17.98,17.61c-.9,1-2.26,1.54-4.05,1.64h-30.66c-2.29-.1-4.16-.89-5.58-2.41h0ZM52.43,0h34.8c2.19,0,3.98,1.8,3.98,3.98v6.03c0,2.19-1.8,3.98-3.98,3.98h-10.27v5.07h-14.26v-5.07h-10.27c-2.19,0-3.98-1.8-3.98-3.98V3.98c0-2.19,1.8-3.98,3.98-3.98h0Z"/>
  </g>
</svg>