<?xml version="1.0" encoding="UTF-8"?>
<svg id="Layer_2" data-name="Layer 2" xmlns="http://www.w3.org/2000/svg" viewBox="0 0 123.93 123.75">
  <defs>
    <style>
      .cls-1 {
        fill: #e76531;
      }
    </style>
  </defs>
  <g id="fuel">
    <g>
      <path class="cls-1" d="M109.86,0c1.5.86,2.46,1.66,2.66,3.5.27,2.5.27,8.62,0,11.12-.18,1.63-1.34,3.22-3.04,3.49-4,.63-7.85-.4-12.34.71-8.61,2.13-12.71,9.21-19.05,14.54l-12.46-12.21-.12-.61c5.7-5.42,10.49-11.54,17.46-15.42,4.95-2.76,10.66-4.58,16.36-4.9l.38-.22h10.15Z"/>
      <path class="cls-1" d="M123.87,58.01c.09.73.09,2.41,0,3.14-1.35,11.36-16.08,15.6-23.44,6.89-5.72-6.77-2.45-13.64,1.17-20.35,1.38-2.56,4.39-7.97,6.22-9.97.97-1.07,2.34-1.47,3.74-1.11,1.81.47,3.19,3.2,4.2,4.74,2.48,3.78,7.56,12.36,8.11,16.66Z"/>
      <path class="cls-1" d="M54.47,22.78c1.15-.24,2.41-.1,3.33.67l17.81,17.95c1.33,6.72,3.02,14.06,3.77,20.88.13,1.19.4,1.99-.15,3.15-9.96,10.84-20.98,20.75-31.21,31.37-4.86,3.78-10.99,4.95-16.91,3.14-6.66-2.03-11.29-8.95-16.3-13.43-.21-.24-.33-.27-.61-.12-.44.23-4.08,4.03-4.55,4.65-1.12,1.46-1.93,3.26-2.15,5.1-.94,7.82.65,17-.18,24.96-1.3,3.83-6.47,3.41-7.14-.61.44-7.89-.56-16.37,0-24.19.48-6.69,4.32-10.9,8.93-15.25-1.64-2.66-6.53-4.78-4.71-8.56l20.8-21.01c-1.13-3.44-6.02-6.9-3.16-10.64,5.31-4.48,10.14-11.21,15.46-15.47,4.07-3.26,6.65,2.12,9.43,4.35.52,0,5.76-6.58,7.54-6.95ZM47.05,71.54v8.58c0,1.42-2.4,2.83-3.74,2.79s-3.51-1.73-3.51-3.03v-5.44l-13.27,13.38c4.21,5.57,11.25,7.92,17.14,3.18l14.01-14.02-10.63-5.43Z"/>
    </g>
  </g>
</svg>