<?xml version="1.0" encoding="UTF-8"?>
<svg id="Capa_1" xmlns="http://www.w3.org/2000/svg" version="1.1" viewBox="0 0 800 800">
  <!-- Generator: Adobe Illustrator 29.0.0, SVG Export Plug-In . SVG Version: 2.1.0 Build 186)  -->
  <defs>
    <style>
      .st0 {
        fill: #e2cab4;
      }
    </style>
  </defs>
  <path class="st0" d="M364.9,439.6l39.9-24.7c9.1-5.6,11.9-17.5,6.2-26.6l-16.6-26.7c13.7-13.8,25.3-29.9,34.1-47.7l30.7,7.2c10.4,2.4,20.8-4,23.2-14.4l10.7-45.8c2.4-10.4-4-20.8-14.4-23.2l-30.7-7.2c0-19.7-3.2-39.1-9.5-57.8l26.8-16.6c9.1-5.6,11.9-17.6,6.2-26.6l-24.8-39.9c-5.6-9.1-17.5-11.9-26.6-6.2l-26.8,16.6c-13.9-13.9-30-25.4-47.6-34.1l7.2-30.7c2.4-10.4-4-20.8-14.4-23.2l-45.7-10.7c-10.4-2.4-20.8,4-23.2,14.4l-7.1,30.5c-20.2,0-39.7,3.4-57.9,9.4l-16.5-26.7c-5.6-9.1-17.5-11.9-26.6-6.2l-39.9,24.8c-9.1,5.6-11.9,17.5-6.2,26.6l16.5,26.6c-13.7,13.8-25.3,29.9-34.2,47.7l-30.6-7.2c-10.4-2.4-20.8,4-23.2,14.4l-10.7,45.8c-2.4,10.4,4,20.8,14.4,23.2l30.7,7.2c0,19.7,3.2,39.1,9.5,57.8l-26.8,16.6c-9.1,5.6-11.9,17.5-6.2,26.6l24.7,39.9c5.6,9.1,17.5,11.9,26.6,6.3l26.9-16.6c13.9,13.8,29.9,25.4,47.5,34.1l-7.2,30.7c-2.4,10.4,4,20.8,14.4,23.2l45.7,10.7c10.4,2.4,20.8-4,23.2-14.4l7.2-30.6c20.2,0,39.7-3.4,57.9-9.5l16.6,26.7c5.6,9.1,17.5,11.9,26.6,6.2ZM166.4,208.4c10.6-45.2,50.3-76.8,96.7-76.8s15.3.9,22.8,2.6c25.9,6,47.8,21.8,61.8,44.4,14,22.5,18.4,49.2,12.3,75.1-10.6,45.2-50.4,76.8-96.7,76.8s-15.3-.9-22.8-2.7c-25.8-6-47.8-21.8-61.8-44.4-14-22.6-18.4-49.2-12.3-75.1Z"/>
  <path class="st0" d="M603.9,640.5l35.7-6.8c8.1-1.5,13.4-9.4,11.9-17.5l-4.6-23.9c13.7-6.2,26.5-14.6,37.9-25l20.2,13.7c6.8,4.6,16.1,2.9,20.8-4l20.4-30.1c4.6-6.8,2.9-16.1-4-20.8l-20.2-13.7c5.4-14.2,8.5-29.2,9.2-44.4l24-4.6c8.1-1.5,13.4-9.4,11.9-17.5l-6.8-35.7c-1.6-8.1-9.4-13.4-17.5-11.9l-24,4.6c-6.2-13.9-14.6-26.6-24.9-37.8l13.7-20.2c4.6-6.8,2.9-16.1-4-20.8l-30.1-20.4c-6.8-4.6-16.1-2.9-20.8,4l-13.6,20.1c-14.6-5.6-29.6-8.6-44.5-9.2l-4.6-23.8c-1.6-8.1-9.4-13.4-17.5-11.9l-35.7,6.8c-8.1,1.6-13.4,9.4-11.9,17.5l4.6,23.8c-13.7,6.2-26.6,14.6-37.9,25l-20.1-13.7c-6.8-4.6-16.1-2.9-20.8,4l-20.4,30.1c-4.6,6.8-2.9,16.1,4,20.8l20.2,13.7c-5.4,14.2-8.5,29.2-9.2,44.4l-24,4.6c-8.1,1.5-13.4,9.4-11.9,17.5l6.8,35.7c1.5,8.1,9.4,13.4,17.5,11.9l24-4.6c6.2,13.9,14.6,26.6,24.9,37.8l-13.7,20.2c-4.6,6.8-2.9,16.1,4,20.8l30.1,20.4c6.8,4.6,16.1,2.9,20.8-4l13.7-20.1c14.6,5.6,29.6,8.6,44.5,9.2l4.6,23.9c1.5,8.1,9.4,13.4,17.5,11.9ZM524.7,418.4c20.2-29.7,57.7-41.5,91.1-28.7,5.5,2.1,10.8,4.9,15.8,8.2,17,11.5,28.5,29,32.3,49.2,3.9,20.2-.4,40.7-11.9,57.7-20.2,29.7-57.7,41.5-91.1,28.7-5.5-2.1-10.8-4.9-15.8-8.2-17-11.5-28.5-29-32.3-49.2-3.9-20.2.4-40.6,11.9-57.6Z"/>
  <path class="st0" d="M325.1,794l31.2-14.7c7.1-3.3,10.1-11.8,6.8-18.9l-9.8-20.8c11.1-8.9,20.9-19.7,28.9-31.9l21.8,7.8c7.4,2.6,15.5-1.2,18.1-8.6l11.6-32.5c2.6-7.4-1.2-15.5-8.6-18.1l-21.8-7.8c1.6-14.4.9-28.8-2.1-42.9l20.9-9.9c7.1-3.3,10.1-11.8,6.8-18.9l-14.7-31.1c-3.3-7.1-11.8-10.1-18.9-6.8l-20.9,9.9c-9-11.3-19.7-21-31.8-28.9l7.8-21.8c2.6-7.4-1.2-15.5-8.6-18.1l-32.4-11.6c-7.4-2.6-15.5,1.2-18.1,8.6l-7.8,21.7c-14.7-1.7-29.2-.9-43,2l-9.8-20.8c-3.3-7.1-11.8-10.1-18.9-6.8l-31.1,14.7c-7.1,3.3-10.1,11.8-6.8,18.9l9.8,20.8c-11.1,8.9-20.9,19.7-28.9,31.9l-21.7-7.8c-7.4-2.6-15.5,1.2-18.1,8.6l-11.7,32.5c-2.6,7.4,1.2,15.5,8.5,18.1l21.8,7.8c-1.6,14.4-.9,28.8,2.1,42.9l-21,9.9c-7.1,3.3-10.1,11.8-6.8,18.9l14.7,31.2c3.3,7.1,11.8,10.1,18.9,6.8l21-9.9c9,11.3,19.7,21,31.8,28.9l-7.8,21.8c-2.6,7.4,1.2,15.5,8.6,18.1l32.4,11.6c7.4,2.6,15.5-1.2,18.1-8.6l7.8-21.7c14.7,1.7,29.2.9,43-2l9.8,20.9c3.3,7.1,11.8,10.1,18.9,6.8ZM199.8,608.8c11.5-32.1,43.1-51.7,76.9-47.9,5.6.6,11.1,1.9,16.4,3.8,18.3,6.6,33,19.9,41.3,37.5,8.3,17.6,9.3,37.4,2.7,55.7-11.5,32-43.1,51.7-76.9,47.8-5.6-.6-11.1-1.9-16.4-3.8-18.3-6.5-33-19.9-41.3-37.5-8.3-17.6-9.2-37.4-2.7-55.7Z"/>
</svg>