<svg xmlns="http://www.w3.org/2000/svg" id="group" viewBox="38.05 54.22 123.91 91.56">
  <defs>
    <style>
      .cls-1 {
        fill: #fcfaee;
      }
    </style>
  </defs>
  <path class="cls-1" d="M100,108.08c7.44,0,14.17-3.02,19.05-7.89,4.87-4.87,7.89-11.6,7.89-19.04s-3.02-14.17-7.89-19.04c-4.88-4.88-11.61-7.89-19.05-7.89s-14.17,3.02-19.05,7.89c-4.87,4.87-7.89,11.6-7.89,19.04s3.02,14.17,7.89,19.04c4.88,4.88,11.61,7.89,19.05,7.89ZM143.1,113.47c3.72,0,7.08-1.5,9.52-3.94s3.94-5.8,3.94-9.53-1.5-7.08-3.94-9.52c-2.44-2.44-5.81-3.94-9.52-3.94s-7.09,1.5-9.53,3.94c-2.44,2.44-3.94,5.81-3.94,9.52s1.5,7.09,3.94,9.53,5.81,3.94,9.53,3.94ZM143.1,116.64c-7.17,0-12.56,2.19-15.71,5.21-6.01-4.94-15.5-8.39-27.38-8.39s-21.52,3.49-27.43,8.43c-3.21-3.04-8.66-5.25-15.67-5.25-11.79,0-18.86,5.87-18.86,11.76,0,2.94,7.07,5.88,18.86,5.88,3.25,0,6.17-.27,8.74-.72l-.22,1.45c0,5.39,12.96,10.77,34.57,10.77,20.27,0,34.57-5.39,34.57-10.77l-.11-1.37c2.49.39,5.36.64,8.64.64,11.05,0,18.86-2.95,18.86-5.88,0-5.88-7.4-11.76-18.86-11.76h0ZM56.9,113.47c3.72,0,7.08-1.5,9.52-3.94s3.94-5.81,3.94-9.52-1.5-7.08-3.94-9.52c-2.44-2.44-5.81-3.94-9.52-3.94s-7.09,1.51-9.53,3.94c-2.44,2.45-3.94,5.81-3.94,9.52s1.5,7.08,3.94,9.52c2.44,2.44,5.81,3.94,9.53,3.94Z"/>
</svg>