<?xml version="1.0" encoding="UTF-8"?>
<svg id="Layer_2" data-name="Layer 2" xmlns="http://www.w3.org/2000/svg" viewBox="0 0 117.59 123.75">
  <defs>
    <style>
      .cls-1 {
        fill: #e76531;
      }
    </style>
  </defs>
  <g id="horsepower">
    <g>
      <path class="cls-1" d="M68.95,0c2.8.85,5.27,2.96,5.71,5.99.25,1.75-.06,3.63.11,5.4.82,8.75,9.49,14.35,17.86,11.87,3.04-.9,5.7-3.79,8.96-3.73,2.49.05,4.75,1.55,6.15,3.51,2.18,3.03,7.75,12.61,9.09,15.97,3.38,8.48-5.5,9.3-9.32,14.01-4.13,5.11-3.89,12.84.4,17.77,3.8,4.35,10.57,4.12,9.48,11.96-.12.9-.64,1.75-1.03,2.55-2.06,4.19-5.76,10.65-8.36,14.5-5.9,8.72-11.29.49-17.79-.28-7.47-.89-14.7,4.69-15.45,12.22-.23,2.26.31,4.57-.39,6.78-.75,2.38-3.34,4.61-5.84,4.9-4.57.52-14.31.37-19.02.01-2.33-.18-4.43-1.41-5.69-3.4-1.62-2.58-.84-4.71-1.05-7.49-.69-9.02-9.42-15.26-18.16-12.39-4.62,1.52-8.2,6.38-13.38,1.78-2.16-1.92-8.21-12.94-9.82-16.07-.63-1.23-1.21-2.2-1.34-3.62-.67-7.52,5.78-7.16,9.52-11.44,4.34-4.98,4.41-12.78.28-17.91C6.17,48.29-.97,48.48.11,40.66c.3-2.14,7.15-13.52,8.74-16.05,1.27-2.01,2.16-3.65,4.54-4.55,4.85-1.83,6.91,1.64,10.86,3.02,8.78,3.08,17.78-3,18.53-12.2.23-2.85-.6-5.04,1.15-7.66,1.07-1.61,2.67-2.43,4.36-3.21h20.66ZM54.85,27.63c-22.71,2.01-36.49,27-27.54,47.76,11.13,25.81,47.66,27.73,61.34,3.13,13.77-24.76-5.88-53.36-33.8-50.89Z"/>
      <path class="cls-1" d="M64.57,41.29c2.61-.15,5.37.31,6.7,2.8,3.36,7.53,8.49,14.9,11.78,22.38,1.53,3.49,1.61,6.22-1.88,8.4-4.85,3.03-10.24-.21-12.01-5.12l-4.33-1.45c-.57,2.78-.25,5.81.41,8.54,1.07,4.47,4.4,8.12,4.24,12.92-9.64,3.46-20.78,2.02-28.9-4.3-.55-6.07-.62-11.86,1.24-17.71,2.33-7.32,7.36-14.13,12.52-19.71,1.18-1.28,2.02-.72,1.96-3.02-.05-1.71-.29-3.04.05-4.88.37-1.97,1.45-4.72,3.33-5.68,2.67,1.26,4.33,4,4.89,6.82Z"/>
      <path class="cls-1" d="M35.89,80.71c-1.26-1.17-4.35-5.45-4.42-7.03-.06-1.22.85-4.35,1.2-5.7,2.73-10.58,9.12-20.4,18.92-25.56-.06.78.19,1.75-.14,2.47-.23.51-3.41,3.53-4.13,4.41-7.19,8.83-12.4,19.72-11.43,31.41Z"/>
    </g>
  </g>
</svg>