<?xml version="1.0" encoding="UTF-8"?>
<svg id="Layer_2" data-name="Layer 2" xmlns="http://www.w3.org/2000/svg" viewBox="0 0 133.93 133.93">
  <defs>
    <style>
      .cls-1 {
        fill: #fcfaef;
      }

      .cls-2 {
        fill: none;
        stroke: #fcfaef;
        stroke-miterlimit: 10;
        stroke-width: 10px;
      }
    </style>
  </defs>
  <g id="info">
    <path class="cls-1" d="M52.64,57.93c-.46,0-.77-.07-.92-.2s-.22-.43-.22-.89v-5.49c0-.89.45-1.34,1.34-1.34h21.33c.43,0,.72.06.87.17.15.12.22.39.22.82v41.32c0,.46.07.78.2.96.13.18.41.27.84.27h6.58c.53,0,.87.05,1.04.15.17.1.25.41.25.94v5.44c0,.63-.08,1.01-.25,1.16s-.54.22-1.14.22h-29.94c-.53,0-.88-.07-1.06-.22-.18-.15-.27-.49-.27-1.01v-5.25c0-.63.1-1.02.3-1.19.2-.16.59-.25,1.19-.25h6.19c.56,0,.91-.07,1.04-.22s.2-.49.2-1.01v-33.16c0-.82-.36-1.24-1.09-1.24h-6.68ZM61.05,26.73c1.75-1.47,3.84-2.2,6.29-2.2s4.58.73,6.31,2.2c1.73,1.47,2.6,3.46,2.6,5.96s-.87,4.5-2.6,5.96c-1.73,1.47-3.83,2.2-6.31,2.2s-4.54-.73-6.29-2.2c-1.75-1.47-2.62-3.46-2.62-5.96s.87-4.5,2.62-5.96Z"/>
    <circle class="cls-2" cx="66.97" cy="66.97" r="61.97"/>
  </g>
</svg>