<?xml version="1.0" encoding="UTF-8"?>
<svg id="Layer_2" data-name="Layer 2" xmlns="http://www.w3.org/2000/svg" viewBox="0 0 123.93 123.77">
  <defs>
    <style>
      .cls-1 {
        fill: #e76531;
      }
    </style>
  </defs>
  <g id="mileage">
    <path class="cls-1" d="M56.97.15c55.01-3.62,87.77,59.67,52.04,101.99-29.56,35-86.42,26.01-104.14-16.02C-11.42,47.48,15.03,2.91,56.97.15ZM57.78,17.43c-16.78,1.31-32.03,13.26-37.75,28.94-1.61,4.41-3.26,11.57-2.7,16.21.42,3.46,5,4.89,7.41,2.27,1.75-1.89.98-4.14,1.24-6.33,2.61-22.27,23.4-37.22,45.42-31.38,1.73.46,4.11,1.73,5.74,1.83,4.91.29,6.64-5.91,2.03-8.24-5.86-2.96-14.91-3.81-21.38-3.3ZM89.89,28.76c-1.1.18-1.94.86-2.62,1.7l-24.43,34.17c-1.95.36-3.19.24-5.02,1.19-5.55,2.88-6.17,10.4-1.35,14.32,6.94,5.64,16.81-1.88,13.29-10.04l24.91-35.46c1.33-3.21-1.34-6.43-4.79-5.87ZM99.61,47.65c-4.78.99-2.18,7.77-1.82,10.88.21,1.8-.3,3.34.49,5.18,1.62,3.74,7.34,3.01,8.09-.65.52-2.54-.49-12.22-2.22-14.13-1.17-1.29-2.87-1.62-4.54-1.28Z"/>
  </g>
</svg>