<?xml version="1.0" encoding="UTF-8"?>
<svg id="Layer_2" data-name="Layer 2" xmlns="http://www.w3.org/2000/svg" viewBox="0 0 117.45 117.65">
  <defs>
    <style>
      .cls-1 {
        fill: #e76531;
      }
    </style>
  </defs>
  <g id="owner">
    <g>
      <path class="cls-1" d="M41.66,0c4.33.65,8.57,2.08,12.18,4.6,3.35,2.34,5.92,5.65,8.07,9.08l38.82.15,10.91,10.91c.27.8.12,1.62-.5,2.22l-10.41,10.18c-1.97,1.28-5.79-4.94-6.72-4.77-1.35.89-4.03,4.7-5.45,4.88-2.17.28-4.44-3.97-6.32-4.88l-5.23,4.83-15.1.09c-8.95,16.58-32.44,18.64-43.49,2.98S17.41,1.65,36.76,0h4.9ZM30.09,15.75c-12.24,1.42-10.74,20.5,2.13,19.53s11.3-21.09-2.13-19.53Z"/>
      <path class="cls-1" d="M0,85.03v-1.47c3.79-3.29,8.23-11.37,14.14-7.64l27.16,27c1.98,2.58,1.74,5.38-.25,7.85-.87,1.08-5.53,5.86-6.51,6.48-.73.46-1.32.53-2.13.19L0,85.03Z"/>
      <path class="cls-1" d="M107.04,49.08c8.68-1.01,13.18,7.93,8.59,15.2-5.66,8.97-13.3,17.49-19.19,26.39-3.8,4.24-9.2,6.97-14.94,7.36-10.97.74-22.77-.57-33.83-.01-1.39.24-2.75.89-3.68,1.96l-26.34-26.34c5.34-5.82,10.4-10.4,18.73-10.92,13.46-.83,27.81.59,41.36.08,11.49,1.62,11.14,18.5-.43,19.53-6.64.59-14.09-.45-20.81.02-2.28.36-2.12,3.79.23,3.91,6.71-.39,13.96.5,20.6,0,9.63-.72,15.32-10.39,11.67-19.29-.28-.67-1.37-2.03-1.16-2.52l13.99-12.99c1.5-1.2,3.27-2.16,5.21-2.39Z"/>
      <path class="cls-1" d="M30.32,19.66c8-1.27,9.4,10.74,1.88,11.68-7.75.97-9.12-10.53-1.88-11.68Z"/>
    </g>
  </g>
</svg>