<?xml version="1.0" encoding="UTF-8"?>
<svg id="Layer_1" data-name="Layer 1" xmlns="http://www.w3.org/2000/svg" xmlns:xlink="http://www.w3.org/1999/xlink" viewBox="0 0 200 200">
  <defs>
    <style>
      .cls-1 {
        fill: #e76531;
      }

      .cls-2 {
        fill: #ebdecb;
      }

      .cls-3 {
        fill: none;
      }

      .cls-4 {
        fill: url(#New_Pattern_2);
      }

      .cls-5 {
        fill: #67b865;
      }
    </style>
    <pattern id="New_Pattern_2" data-name="New Pattern 2" x="0" y="0" width="100" height="100" patternUnits="userSpaceOnUse" viewBox="0 0 100 100">
      <g>
        <rect class="cls-3" width="100" height="100"/>
        <g>
          <polygon class="cls-5" points="107.5 209.5 89.2 191.2 189.2 91.2 207.5 109.5 107.5 209.5"/>
          <polygon class="cls-1" points="89.5 191.5 71.2 173.2 171.2 73.2 189.5 91.5 89.5 191.5"/>
        </g>
        <g>
          <polygon class="cls-5" points="7.5 209.5 -10.8 191.2 89.2 91.2 107.5 109.5 7.5 209.5"/>
          <polygon class="cls-1" points="-10.5 191.5 -28.8 173.2 71.2 73.2 89.5 91.5 -10.5 191.5"/>
        </g>
        <polygon class="cls-5" points="-92.5 209.5 -110.8 191.2 -10.8 91.2 7.5 109.5 -92.5 209.5"/>
        <g>
          <polygon class="cls-5" points="107.5 109.5 89.2 91.2 189.2 -8.8 207.5 9.5 107.5 109.5"/>
          <polygon class="cls-1" points="89.5 91.5 71.2 73.2 171.2 -26.8 189.5 -8.5 89.5 91.5"/>
        </g>
        <g>
          <polygon class="cls-2" points="24.5 126.5 6.2 108.2 106.2 8.2 124.5 26.5 24.5 126.5"/>
          <polygon class="cls-5" points="7.5 109.5 -10.8 91.2 89.2 -8.8 107.5 9.5 7.5 109.5"/>
          <polygon class="cls-1" points="-10.5 91.5 -28.8 73.2 71.2 -26.8 89.5 -8.5 -10.5 91.5"/>
        </g>
        <g>
          <polygon class="cls-2" points="-75.5 126.5 -93.8 108.2 6.2 8.2 24.5 26.5 -75.5 126.5"/>
          <polygon class="cls-5" points="-92.5 109.5 -110.8 91.2 -10.8 -8.8 7.5 9.5 -92.5 109.5"/>
        </g>
        <polygon class="cls-5" points="107.5 9.5 89.2 -8.8 189.2 -108.8 207.5 -90.5 107.5 9.5"/>
        <g>
          <polygon class="cls-2" points="24.5 26.5 6.2 8.2 106.2 -91.8 124.5 -73.5 24.5 26.5"/>
          <polygon class="cls-5" points="7.5 9.5 -10.8 -8.8 89.2 -108.8 107.5 -90.5 7.5 9.5"/>
        </g>
        <g>
          <polygon class="cls-2" points="-75.5 26.5 -93.8 8.2 6.2 -91.8 24.5 -73.5 -75.5 26.5"/>
          <polygon class="cls-5" points="-92.5 9.5 -110.8 -8.8 -10.8 -108.8 7.5 -90.5 -92.5 9.5"/>
        </g>
      </g>
    </pattern>
  </defs>
  <rect class="cls-4" width="200" height="200"/>
</svg>