<?xml version="1.0" encoding="UTF-8"?>
<svg id="Layer_2" data-name="Layer 2" xmlns="http://www.w3.org/2000/svg" viewBox="0 0 166.01 153.7">
  <defs>
    <style>
      .cls-1 {
        fill: #e76531;
      }

      .cls-2 {
        fill: #a8542b;
      }
    </style>
  </defs>
  <g id="point_arrow" data-name="point_arrow">
    <g>
      <path class="cls-2" d="M166.01,70.63c0,14.99-12.15,27.14-27.13,27.14-4.42,0-8.6-1.06-12.28-2.94v23.47c0,16.41-17.77,26.67-31.98,18.47L10.66,88.29c-14.21-8.2-14.21-28.72,0-36.93L94.62,2.89c14.21-8.21,31.98,2.05,31.98,18.47v25.07c3.68-1.88,7.86-2.93,12.28-2.93,14.98,0,27.13,12.14,27.13,27.13Z"/>
      <path class="cls-2" d="M166.01,71.63c0,14.99-12.15,27.14-27.13,27.14-4.42,0-8.6-1.06-12.28-2.94v23.47c0,16.41-17.77,26.67-31.98,18.47L10.66,89.29c-14.21-8.2-14.21-28.72,0-36.93L94.62,3.89c14.21-8.21,31.98,2.05,31.98,18.47v25.07c3.68-1.88,7.86-2.93,12.28-2.93,14.98,0,27.13,12.14,27.13,27.13Z"/>
      <path class="cls-2" d="M166.01,72.64c0,14.99-12.15,27.14-27.13,27.14-4.42,0-8.6-1.06-12.28-2.94v23.47c0,16.41-17.77,26.67-31.98,18.47L10.66,90.3c-14.21-8.2-14.21-28.72,0-36.93L94.62,4.9c14.21-8.21,31.98,2.05,31.98,18.47v25.07c3.68-1.88,7.86-2.93,12.28-2.93,14.98,0,27.13,12.14,27.13,27.13Z"/>
      <path class="cls-2" d="M166.01,73.64c0,14.99-12.15,27.14-27.13,27.14-4.42,0-8.6-1.06-12.28-2.94v23.47c0,16.41-17.77,26.67-31.98,18.47L10.66,91.3c-14.21-8.2-14.21-28.72,0-36.93L94.62,5.9c14.21-8.21,31.98,2.05,31.98,18.47v25.07c3.68-1.88,7.86-2.93,12.28-2.93,14.98,0,27.13,12.14,27.13,27.13Z"/>
      <path class="cls-2" d="M166.01,74.64c0,14.99-12.15,27.14-27.13,27.14-4.42,0-8.6-1.06-12.28-2.94v23.47c0,16.41-17.77,26.67-31.98,18.47L10.66,92.3c-14.21-8.2-14.21-28.72,0-36.93L94.62,6.9c14.21-8.21,31.98,2.05,31.98,18.47v25.07c3.68-1.88,7.86-2.93,12.28-2.93,14.98,0,27.13,12.14,27.13,27.13Z"/>
      <path class="cls-2" d="M166.01,75.64c0,14.99-12.15,27.14-27.13,27.14-4.42,0-8.6-1.06-12.28-2.94v23.47c0,16.41-17.77,26.67-31.98,18.47L10.66,93.3c-14.21-8.2-14.21-28.72,0-36.93L94.62,7.9c14.21-8.21,31.98,2.05,31.98,18.47v25.07c3.68-1.88,7.86-2.93,12.28-2.93,14.98,0,27.13,12.14,27.13,27.13Z"/>
      <path class="cls-2" d="M166.01,76.65c0,14.99-12.15,27.14-27.13,27.14-4.42,0-8.6-1.06-12.28-2.94v23.47c0,16.41-17.77,26.67-31.98,18.47L10.66,94.31c-14.21-8.2-14.21-28.72,0-36.93L94.62,8.91c14.21-8.21,31.98,2.05,31.98,18.47v25.07c3.68-1.88,7.86-2.93,12.28-2.93,14.98,0,27.13,12.14,27.13,27.13Z"/>
      <path class="cls-2" d="M166.01,77.65c0,14.99-12.15,27.14-27.13,27.14-4.42,0-8.6-1.06-12.28-2.94v23.47c0,16.41-17.77,26.67-31.98,18.47L10.66,95.31c-14.21-8.2-14.21-28.72,0-36.93L94.62,9.91c14.21-8.21,31.98,2.05,31.98,18.47v25.07c3.68-1.88,7.86-2.93,12.28-2.93,14.98,0,27.13,12.14,27.13,27.13Z"/>
      <path class="cls-2" d="M166.01,78.65c0,14.99-12.15,27.14-27.13,27.14-4.42,0-8.6-1.06-12.28-2.94v23.47c0,16.41-17.77,26.67-31.98,18.47L10.66,96.31c-14.21-8.2-14.21-28.72,0-36.93L94.62,10.91c14.21-8.21,31.98,2.05,31.98,18.47v25.07c3.68-1.88,7.86-2.93,12.28-2.93,14.98,0,27.13,12.14,27.13,27.13Z"/>
      <path class="cls-2" d="M166.01,79.66c0,14.99-12.15,27.14-27.13,27.14-4.42,0-8.6-1.06-12.28-2.94v23.47c0,16.41-17.77,26.67-31.98,18.47L10.66,97.32c-14.21-8.2-14.21-28.72,0-36.93L94.62,11.92c14.21-8.21,31.98,2.05,31.98,18.47v25.07c3.68-1.88,7.86-2.93,12.28-2.93,14.98,0,27.13,12.14,27.13,27.13Z"/>
      <path class="cls-2" d="M166.01,80.66c0,14.99-12.15,27.14-27.13,27.14-4.42,0-8.6-1.06-12.28-2.94v23.47c0,16.41-17.77,26.67-31.98,18.47L10.66,98.32c-14.21-8.2-14.21-28.72,0-36.93L94.62,12.92c14.21-8.21,31.98,2.05,31.98,18.47v25.07c3.68-1.88,7.86-2.93,12.28-2.93,14.98,0,27.13,12.14,27.13,27.13Z"/>
      <path class="cls-2" d="M166.01,81.66c0,14.99-12.15,27.14-27.13,27.14-4.42,0-8.6-1.06-12.28-2.94v23.47c0,16.41-17.77,26.67-31.98,18.47L10.66,99.32c-14.21-8.2-14.21-28.72,0-36.93L94.62,13.92c14.21-8.21,31.98,2.05,31.98,18.47v25.07c3.68-1.88,7.86-2.93,12.28-2.93,14.98,0,27.13,12.14,27.13,27.13Z"/>
      <path class="cls-2" d="M166.01,82.67c0,14.99-12.15,27.14-27.13,27.14-4.42,0-8.6-1.06-12.28-2.94v23.47c0,16.41-17.77,26.67-31.98,18.47L10.66,100.33c-14.21-8.2-14.21-28.72,0-36.93L94.62,14.93c14.21-8.21,31.98,2.05,31.98,18.47v25.07c3.68-1.88,7.86-2.93,12.28-2.93,14.98,0,27.13,12.14,27.13,27.13Z"/>
      <path class="cls-2" d="M166.01,83.67c0,14.99-12.15,27.14-27.13,27.14-4.42,0-8.6-1.06-12.28-2.94v23.47c0,16.41-17.77,26.67-31.98,18.47L10.66,101.33c-14.21-8.2-14.21-28.72,0-36.93L94.62,15.93c14.21-8.21,31.98,2.05,31.98,18.47v25.07c3.68-1.88,7.86-2.93,12.28-2.93,14.98,0,27.13,12.14,27.13,27.13Z"/>
      <path class="cls-2" d="M166.01,84.67c0,14.99-12.15,27.14-27.13,27.14-4.42,0-8.6-1.06-12.28-2.94v23.47c0,16.41-17.77,26.67-31.98,18.47L10.66,102.33c-14.21-8.2-14.21-28.72,0-36.93L94.62,16.93c14.21-8.21,31.98,2.05,31.98,18.47v25.07c3.68-1.88,7.86-2.93,12.28-2.93,14.98,0,27.13,12.14,27.13,27.13Z"/>
    </g>
    <path class="cls-1" d="M166.01,70.63c0,14.99-12.15,27.14-27.13,27.14-4.42,0-8.6-1.06-12.28-2.94v23.47c0,16.41-17.77,26.67-31.98,18.47L10.66,88.29c-14.21-8.2-14.21-28.72,0-36.93L94.62,2.89c14.21-8.21,31.98,2.05,31.98,18.47v25.07c3.68-1.88,7.86-2.93,12.28-2.93,14.98,0,27.13,12.14,27.13,27.13Z"/>
  </g>
</svg>