<?xml version="1.0" encoding="UTF-8"?>
<svg id="Layer_2" data-name="Layer 2" xmlns="http://www.w3.org/2000/svg" viewBox="0 0 83.27 127.8">
  <defs>
    <style>
      .cls-1 {
        fill: #e2cab4;
      }
    </style>
  </defs>
  <g id="question_mark" data-name="question mark">
    <path class="cls-1" d="M23.38,18.22c.85.66,1.83,1.39,2.93,2.18,1.1.8,2.07,1.92,2.93,3.38.85,1.46,1.28,3.56,1.28,6.31s-.76,5.31-2.27,7.34c-1.51,2.03-3.45,3.59-5.81,4.66-2.36,1.07-4.78,1.61-7.26,1.61s-5.04-.59-7.38-1.77c-2.34-1.18-4.22-2.95-5.65-5.32-1.43-2.36-2.14-5.28-2.14-8.74,0-4.51,1.54-8.89,4.62-13.15,3.08-4.26,7.58-7.78,13.52-10.55C24.08,1.39,31.28,0,39.74,0s16.53,1.31,23.04,3.92c6.51,2.61,11.56,6.49,15.13,11.63,3.57,5.14,5.36,11.5,5.36,19.09,0,6.32-1.55,12.07-4.66,17.23-3.11,5.17-7.37,9.59-12.78,13.27s-11.58,6.46-18.51,8.33c-1.21.33-2.06.65-2.56.95-.49.3-.77,1.25-.82,2.84l-.17,7.34c-.06,1.38-.37,2.21-.95,2.51-.58.3-1.55.45-2.93.45h-4.29c-2.03,0-3.37-.22-4-.66-.63-.44-1.03-1.59-1.2-3.46l-.58-11.87c-.17-2.09.1-3.34.78-3.75.69-.41,1.77-.95,3.26-1.61,7.59-3.08,13.56-7.72,17.93-13.93,4.37-6.21,6.56-13.19,6.56-20.94,0-4.07-.67-7.83-2.02-11.3-1.35-3.46-3.5-6.24-6.47-8.33-2.97-2.09-6.9-3.13-11.79-3.13-5.66,0-9.74.85-12.24,2.56-2.5,1.7-3.75,3.24-3.75,4.62,0,.99.43,1.81,1.28,2.47ZM27.99,105.5c1.35-2.23,3.15-4.01,5.4-5.36,2.25-1.35,4.75-2.02,7.5-2.02s5.17.67,7.42,2.02c2.25,1.35,4.05,3.13,5.4,5.36,1.35,2.23,2.02,4.71,2.02,7.46s-.67,5.17-2.02,7.42c-1.35,2.25-3.15,4.05-5.4,5.4-2.25,1.35-4.73,2.02-7.42,2.02s-5.25-.67-7.5-2.02c-2.25-1.35-4.05-3.15-5.4-5.4-1.35-2.25-2.02-4.73-2.02-7.42s.67-5.24,2.02-7.46Z"/>
  </g>
</svg>