<?xml version="1.0" encoding="UTF-8"?>
<svg id="Layer_2" data-name="Layer 2" xmlns="http://www.w3.org/2000/svg" xmlns:xlink="http://www.w3.org/1999/xlink" viewBox="0 0 387 570">
  <defs>
    <style>
      .cls-1 {
        fill: #c6ff8a;
      }

      .cls-2 {
        fill: #84b74e;
      }

      .cls-3 {
        fill: #a0db61;
      }

      .cls-4 {
        fill: #fefef7;
      }

      .cls-5 {
        opacity: .15;
      }

      .cls-5, .cls-6 {
        fill: #8fd14f;
      }

      .cls-7 {
        fill: url(#New_Pattern);
      }

      .cls-8 {
        fill: none;
      }

      .cls-9 {
        opacity: .13;
      }

      .cls-10 {
        fill: #7cb645;
      }

      .cls-11 {
        fill: #fcfaee;
      }

      .cls-12 {
        fill: url(#stripes_2);
      }

      .cls-13 {
        fill: #8ec159;
      }

      .cls-14 {
        fill: #acf460;
      }

      .cls-15 {
        fill: #557a2e;
      }

      .cls-16 {
        clip-path: url(#clippath);
      }

      .cls-17 {
        fill: #699639;
      }
    </style>
    <pattern id="New_Pattern" data-name="New Pattern" x="0" y="0" width="200" height="200" patternTransform="translate(-2766.09 -1474.6) scale(.8)" patternUnits="userSpaceOnUse" viewBox="0 0 200 200">
      <g>
        <rect class="cls-8" width="200" height="200"/>
        <path d="M117.3,281.1c3.67-7.25,4.24-18.96,4.45-30.47,2.18-1.29,6.44-3.92,9.84-6.06.1.69,2.04,23.26,14.73,16.94,10.85-5.41,4.94-18.88,3.22-16.06-.62.9-1.4,1.7-2.4,2.26-2.44,1.34-3.88-1.79-5.33-6.97-3.84-13.96-8.26-40.68-32.7-31.44-1.84.73-3.78,1.61-5.65,2.64-8.18,4.5-15.91,11.83-18.19,20.09-2.72,10.18,2.33,16.47,7.83,16.62,1.61.05,3.31-.61,4.89-1.47,2.8-1.54,5.02-3.79,4.59-4.39-2.65-3.96-7.48-18.87,6.51-26.56,4.02-2.21,8.97-3.9,13.08-.84-.07.04-.14.08-.14.08-14.49,10.68-5.54,50.41-17.74,57.12-5.17,2.84-8.6-3.58-6.37-7.33.72-1.24-2.15-1.53-5.16.13-3.23,1.77-6.67,5.72-6.01,13.02,1.01,11.68,12.89,16.64,22.36,11.44,3.16-1.74,6.09-4.56,8.2-8.71ZM125.51,219.23c3.33,5.55,4.65,14.07,5.41,20.38-2.79,1.72-6.51,3.96-9.02,5.52.2-10.85.58-20.87,3.6-25.9Z"/>
        <path d="M254.4,116.4c.04-5.94-3.42-13.79-7.04-21.39,1.01-1.56,2.94-4.66,4.46-7.18.29.42,8.93,14.55,15.17,6.27,5.33-7.08-2.93-13.96-3.14-11.56-.11.8-.36,1.57-.84,2.26-1.16,1.67-3.12.1-5.76-2.82-7.07-7.87-18.68-23.91-31.65-9.89-.96,1.08-1.95,2.29-2.83,3.57-3.88,5.61-6.55,12.93-5.34,19.08,1.55,7.55,6.9,10.01,10.55,8.31,1.07-.5,1.97-1.48,2.72-2.56,1.33-1.92,2.04-4.11,1.57-4.37-3.02-1.73-11.05-9.9-4.41-19.5,1.91-2.76,4.59-5.48,8.28-4.82l-.07.1c-6,11.72,12.83,34.78,7.04,43.15-2.45,3.54-6.8.46-6.56-2.72.07-1.04-1.9-.3-3.33,1.77-1.53,2.21-2.49,5.92.32,10.48,4.47,7.31,13.86,6.68,18.36.18,1.5-2.17,2.49-4.97,2.52-8.37ZM239.57,73.25c3.99,2.54,7.64,7.68,10.19,11.56-1.26,2.04-2.97,4.71-4.1,6.55-3.41-7.16-6.44-13.84-6.1-18.12Z"/>
        <g>
          <path d="M117.3,81.1c3.67-7.25,4.24-18.96,4.45-30.47,2.18-1.29,6.44-3.92,9.84-6.06.1.69,2.04,23.26,14.73,16.94,10.85-5.41,4.94-18.88,3.22-16.06-.62.9-1.4,1.7-2.4,2.26-2.44,1.34-3.88-1.79-5.33-6.97-3.84-13.96-8.26-40.68-32.7-31.44-1.84.73-3.78,1.61-5.65,2.64-8.18,4.5-15.91,11.83-18.19,20.09-2.72,10.18,2.33,16.47,7.83,16.62,1.61.05,3.31-.61,4.89-1.47,2.8-1.54,5.02-3.79,4.59-4.39-2.65-3.96-7.48-18.87,6.51-26.56,4.02-2.21,8.97-3.9,13.08-.84-.07.04-.14.08-.14.08-14.49,10.68-5.54,50.41-17.74,57.12-5.17,2.84-8.6-3.58-6.37-7.33.72-1.24-2.15-1.53-5.16.13-3.23,1.77-6.67,5.72-6.01,13.02,1.01,11.68,12.89,16.64,22.36,11.44,3.16-1.74,6.09-4.56,8.2-8.71ZM125.51,19.23c3.33,5.55,4.65,14.07,5.41,20.38-2.79,1.72-6.51,3.96-9.02,5.52.2-10.85.58-20.87,3.6-25.9Z"/>
          <path d="M146.74,115.23c4.57.03,10.6-2.62,16.44-5.41,1.2.77,3.59,2.26,5.52,3.43-.32.22-11.18,6.86-4.82,11.66,5.44,4.1,10.73-2.25,8.89-2.41-.61-.09-1.21-.28-1.74-.64-1.29-.89-.07-2.4,2.17-4.43,6.05-5.43,18.38-14.36,7.6-24.33-.83-.74-1.76-1.5-2.74-2.18-4.31-2.98-9.94-5.03-14.67-4.11-5.8,1.19-7.7,5.3-6.39,8.11.38.82,1.14,1.51,1.97,2.09,1.48,1.02,3.16,1.57,3.36,1.21,1.33-2.33,7.61-8.5,14.99-3.39,2.12,1.46,4.21,3.53,3.71,6.37-.04-.03-.08-.05-.08-.05-9.01-4.61-26.74,9.87-33.17,5.42-2.72-1.88-.36-5.23,2.09-5.04.8.05.23-1.46-1.36-2.56-1.7-1.18-4.55-1.92-8.06.24-5.62,3.44-5.13,10.66-.14,14.11,1.66,1.15,3.82,1.92,6.44,1.94ZM179.91,103.83c-1.95,3.07-5.91,5.87-8.89,7.84-1.57-.97-3.62-2.28-5.04-3.15,5.51-2.62,10.64-4.95,13.93-4.69Z"/>
          <path d="M157.67,179.12c3.22-.64,7.09-3.38,10.81-6.19.96.37,2.85,1.07,4.39,1.62-.2.2-6.89,6.46-1.71,8.92,4.43,2.1,7.24-3.14,5.92-2.99-.44.03-.89-.02-1.32-.2-1.04-.44-.4-1.68.89-3.44,3.48-4.71,10.88-12.78,1.84-18.26-.69-.4-1.46-.8-2.25-1.14-3.47-1.48-7.74-2.11-10.94-.77-3.92,1.68-4.66,4.85-3.33,6.64.39.53,1.02.9,1.69,1.19,1.19.51,2.46.65,2.54.36.6-1.83,4.14-7.09,10.08-4.56,1.71.73,3.48,1.88,3.53,3.95-.03-.01-.06-.03-.06-.03-7.02-1.95-17.42,10.82-22.6,8.62-2.19-.93-1.01-3.63.74-3.86.57-.08-.05-1.06-1.33-1.61-1.37-.58-3.48-.69-5.64,1.34-3.47,3.24-2.08,8.26,1.94,9.97,1.34.57,2.97.8,4.82.43ZM179.4,166.28c-.93,2.45-3.32,4.99-5.13,6.81-1.24-.46-2.88-1.08-4.01-1.49,3.5-2.65,6.78-5.03,9.14-5.32Z"/>
          <path d="M185.66,44.35c1.34-1.98,1.93-5.37,2.41-8.71.68-.3,2.02-.91,3.09-1.41,0,.21-.25,6.85,3.67,5.47,3.36-1.18,2.13-5.32,1.53-4.56-.21.24-.47.44-.78.57-.76.3-1.06-.66-1.3-2.23-.61-4.21-.92-12.15-8.38-10.35-.56.15-1.16.33-1.74.56-2.55,1.01-5.07,2.87-6.04,5.19-1.16,2.87.08,4.88,1.67,5.13.47.07.99-.06,1.48-.25.87-.35,1.6-.92,1.5-1.11-.63-1.25-1.49-5.77,2.87-7.5,1.25-.5,2.76-.81,3.84.23l-.04.02c-4.61,2.58-3.46,14.48-7.26,15.99-1.61.64-2.37-1.36-1.59-2.37.26-.33-.57-.52-1.51-.15-1.01.4-2.15,1.42-2.23,3.57-.13,3.44,3.15,5.32,6.09,4.15.98-.39,1.94-1.11,2.71-2.24ZM190.31,26.63c.77,1.74.84,4.27.83,6.13-.88.4-2.04.91-2.83,1.28.46-3.15.93-6.06,2-7.41Z"/>
          <path d="M54.4,116.4c.04-5.94-3.42-13.79-7.04-21.39,1.01-1.56,2.94-4.66,4.46-7.18.29.42,8.93,14.55,15.17,6.27,5.33-7.08-2.93-13.96-3.14-11.56-.11.8-.36,1.57-.84,2.26-1.16,1.67-3.12.1-5.76-2.82-7.07-7.87-18.68-23.91-31.65-9.89-.96,1.08-1.95,2.29-2.83,3.57-3.88,5.61-6.55,12.93-5.34,19.08,1.55,7.55,6.9,10.01,10.55,8.31,1.07-.5,1.97-1.48,2.72-2.56,1.33-1.92,2.04-4.11,1.57-4.37-3.02-1.73-11.05-9.9-4.41-19.5,1.91-2.76,4.59-5.48,8.28-4.82l-.07.1c-6,11.72,12.83,34.78,7.04,43.15-2.45,3.54-6.8.46-6.56-2.72.07-1.04-1.9-.3-3.33,1.77-1.53,2.21-2.49,5.92.32,10.48,4.47,7.31,13.86,6.68,18.36.18,1.5-2.17,2.49-4.97,2.52-8.37ZM39.57,73.25c3.99,2.54,7.64,7.68,10.19,11.56-1.26,2.04-2.97,4.71-4.1,6.55-3.41-7.16-6.44-13.84-6.1-18.12Z"/>
          <path d="M26.72,42.14c3.28.28,7.76-1.27,12.11-2.94.82.62,2.44,1.83,3.76,2.78-.24.14-8.42,4.28-4.13,8.09,3.67,3.26,7.83-1,6.52-1.22-.43-.1-.85-.27-1.21-.56-.87-.71.09-1.73,1.81-3.05,4.66-3.55,14.02-9.25,6.86-17.03-.55-.58-1.18-1.18-1.84-1.72-2.92-2.39-6.85-4.19-10.29-3.79-4.23.52-5.83,3.36-5.06,5.45.23.61.73,1.15,1.29,1.61,1,.82,2.18,1.31,2.34,1.06,1.09-1.59,5.95-5.66,10.95-1.57,1.44,1.17,2.82,2.78,2.29,4.78-.03-.02-.05-.04-.05-.04-6.2-3.83-19.76,5.54-24.12,1.97-1.85-1.51.05-3.77,1.79-3.5.57.08.25-1.04-.83-1.92-1.15-.94-3.15-1.64-5.8-.29-4.23,2.14-4.3,7.35-.91,10.12,1.13.92,2.63,1.6,4.51,1.76ZM51.18,35.87c-1.58,2.09-4.58,3.87-6.83,5.11-1.07-.79-2.47-1.85-3.43-2.55,4.1-1.57,7.92-2.94,10.27-2.56Z"/>
          <path d="M34.07,193.58c4.61-3.15,8.83-10.01,12.76-16.87,1.74-.06,5.17-.23,7.93-.39-.17.45-6.47,14.68,3.26,15.07,8.32.34,9.22-9.73,7.25-8.6-.67.34-1.41.56-2.19.56-1.91,0-1.74-2.36-.9-5.96,2.31-9.67,8.49-27.21-9.28-29.75-1.35-.17-2.81-.28-4.27-.28-6.41,0-13.49,1.86-17.6,6.07-5,5.23-4.05,10.68-.79,12.6.96.56,2.19.73,3.43.73,2.19,0,4.27-.62,4.22-1.12-.28-3.26,1.74-13.83,12.71-13.83,3.15,0,6.69.62,8.15,3.82h-.11c-12.26,1.63-20.02,28.51-29.58,28.51-4.05,0-3.99-5-1.41-6.52.84-.51-.79-1.63-3.15-1.63-2.53,0-5.9,1.24-7.93,5.85-3.26,7.37,2.25,14.28,9.67,14.28,2.47,0,5.17-.73,7.82-2.53ZM59.48,159.06c.17,4.44-1.86,10.01-3.49,14.06-2.25.11-5.23.22-7.25.34,3.71-6.47,7.25-12.37,10.74-14.39Z"/>
          <path d="M118.56,166.26c-.98-3.65-4.41-7.88-7.91-11.94.36-1.13,1.02-3.36,1.53-5.15.25.21,7.92,7.42,10.36,1.3,2.08-5.24-4.14-8.07-3.87-6.56.06.51.04,1.02-.13,1.53-.43,1.22-1.9.58-4.01-.76-5.66-3.64-15.48-11.53-21.08-.75-.41.82-.81,1.73-1.14,2.67-1.44,4.1-1.84,9.04-.07,12.61,2.22,4.37,5.92,4.98,7.87,3.33.57-.48.96-1.24,1.24-2.03.49-1.4.56-2.87.23-2.95-2.15-.55-8.44-4.22-5.98-11.22.71-2.01,1.9-4.14,4.27-4.35-.01.04-.03.07-.03.07-1.71,8.2,13.72,19.18,11.58,25.29-.91,2.59-4.09,1.43-4.48-.57-.13-.65-1.22.14-1.75,1.65-.57,1.62-.53,4.05,1.96,6.38,3.97,3.74,9.63,1.77,11.29-2.97.56-1.58.69-3.47.14-5.56ZM102.21,142.28c2.88.89,5.98,3.43,8.2,5.38-.43,1.46-1.03,3.39-1.41,4.71-3.3-3.82-6.28-7.41-6.79-10.09Z"/>
        </g>
        <path d="M-14.34,44.35c1.34-1.98,1.93-5.37,2.41-8.71.68-.3,2.02-.91,3.09-1.41,0,.21-.25,6.85,3.67,5.47,3.36-1.18,2.13-5.32,1.53-4.56-.21.24-.47.44-.78.57-.76.3-1.06-.66-1.3-2.23-.61-4.21-.92-12.15-8.38-10.35-.56.15-1.16.33-1.74.56-2.55,1.01-5.07,2.87-6.04,5.19-1.16,2.87.08,4.88,1.67,5.13.47.07.99-.06,1.48-.25.87-.35,1.6-.92,1.5-1.11-.63-1.25-1.49-5.77,2.87-7.5,1.25-.5,2.76-.81,3.84.23l-.04.02c-4.61,2.58-3.46,14.48-7.26,15.99-1.61.64-2.37-1.36-1.59-2.37.26-.33-.57-.52-1.51-.15-1.01.4-2.15,1.42-2.23,3.57-.13,3.44,3.15,5.32,6.09,4.15.98-.39,1.94-1.11,2.71-2.24ZM-9.69,26.63c.77,1.74.84,4.27.83,6.13-.88.4-2.04.91-2.83,1.28.46-3.15.93-6.06,2-7.41Z"/>
        <g>
          <path d="M157.67-20.88c3.22-.64,7.09-3.38,10.81-6.19.96.37,2.85,1.07,4.39,1.62-.2.2-6.89,6.46-1.71,8.92,4.43,2.1,7.24-3.14,5.92-2.99-.44.03-.89-.02-1.32-.2-1.04-.44-.4-1.68.89-3.44,3.48-4.71,10.88-12.78,1.84-18.26-.69-.4-1.46-.8-2.25-1.14-3.47-1.48-7.74-2.11-10.94-.77-3.92,1.68-4.66,4.85-3.33,6.64.39.53,1.02.9,1.69,1.19,1.19.51,2.46.65,2.54.36.6-1.83,4.14-7.09,10.08-4.56,1.71.73,3.48,1.88,3.53,3.95-.03-.01-.06-.03-.06-.03-7.02-1.95-17.42,10.82-22.6,8.62-2.19-.93-1.01-3.63.74-3.86.57-.08-.05-1.06-1.33-1.61-1.37-.58-3.48-.69-5.64,1.34-3.47,3.24-2.08,8.26,1.94,9.97,1.34.57,2.97.8,4.82.43ZM179.4-33.72c-.93,2.45-3.32,4.99-5.13,6.81-1.24-.46-2.88-1.08-4.01-1.49,3.5-2.65,6.78-5.03,9.14-5.32Z"/>
          <path d="M34.07-6.42c4.61-3.15,8.83-10.01,12.76-16.87,1.74-.06,5.17-.23,7.93-.39-.17.45-6.47,14.68,3.26,15.07,8.32.34,9.22-9.73,7.25-8.6-.67.34-1.41.56-2.19.56-1.91,0-1.74-2.36-.9-5.96,2.31-9.67,8.49-27.21-9.28-29.75-1.35-.17-2.81-.28-4.27-.28-6.41,0-13.49,1.86-17.6,6.07-5,5.23-4.05,10.68-.79,12.6.96.56,2.19.73,3.43.73,2.19,0,4.27-.62,4.22-1.12-.28-3.26,1.74-13.83,12.71-13.83,3.15,0,6.69.62,8.15,3.82h-.11c-12.26,1.63-20.02,28.51-29.58,28.51-4.05,0-3.99-5-1.41-6.52.84-.51-.79-1.63-3.15-1.63-2.53,0-5.9,1.24-7.93,5.85-3.26,7.37,2.25,14.28,9.67,14.28,2.47,0,5.17-.73,7.82-2.53ZM59.48-40.94c.17,4.44-1.86,10.01-3.49,14.06-2.25.11-5.23.22-7.25.34,3.71-6.47,7.25-12.37,10.74-14.39Z"/>
        </g>
      </g>
    </pattern>
    <pattern id="stripes_2" data-name="stripes 2" x="0" y="0" width="200" height="200" patternTransform="translate(-2606.5 -1474.5) scale(.8)" patternUnits="userSpaceOnUse" viewBox="0 0 200 200">
      <g>
        <rect class="cls-8" width="200" height="200"/>
        <g>
          <polygon class="cls-4" points="416.61 61.17 391.51 36.06 120.39 307.17 145.5 332.28 416.61 61.17"/>
          <polygon class="cls-4" points="465.63 110.18 440.53 85.08 169.41 356.19 194.52 381.3 465.63 110.18"/>
        </g>
        <g>
          <polygon class="cls-4" points="216.61 61.17 191.51 36.06 -79.61 307.17 -54.5 332.28 216.61 61.17"/>
          <polygon class="cls-4" points="265.63 110.18 240.53 85.08 -30.59 356.19 -5.48 381.3 265.63 110.18"/>
        </g>
        <g>
          <polygon class="cls-4" points="16.61 61.17 -8.49 36.06 -279.61 307.17 -254.5 332.28 16.61 61.17"/>
          <polygon class="cls-4" points="65.63 110.18 40.53 85.08 -230.59 356.19 -205.48 381.3 65.63 110.18"/>
        </g>
        <g>
          <polygon class="cls-4" points="416.61 -138.83 391.51 -163.94 120.39 107.17 145.5 132.28 416.61 -138.83"/>
          <polygon class="cls-4" points="465.63 -89.82 440.53 -114.92 169.41 156.19 194.52 181.3 465.63 -89.82"/>
        </g>
        <g>
          <polygon class="cls-4" points="216.61 -138.83 191.51 -163.94 -79.61 107.17 -54.5 132.28 216.61 -138.83"/>
          <polygon class="cls-4" points="265.63 -89.82 240.53 -114.92 -30.59 156.19 -5.48 181.3 265.63 -89.82"/>
        </g>
        <g>
          <polygon class="cls-4" points="16.61 -138.83 -8.49 -163.94 -279.61 107.17 -254.5 132.28 16.61 -138.83"/>
          <polygon class="cls-4" points="65.63 -89.82 40.53 -114.92 -230.59 156.19 -205.48 181.3 65.63 -89.82"/>
        </g>
      </g>
    </pattern>
    <clipPath id="clippath">
      <path class="cls-8" d="M218.4,231.63v102.97c0,2.19-.59,4.34-1.7,6.22l-12.69,21.46c-4.73,8-16.31,8-21.04,0l-12.68-21.46c-1.11-1.88-1.7-4.03-1.7-6.22v-102.97c0-3.3,1.33-6.46,3.7-8.76l12.68-12.33c4.74-4.61,12.3-4.61,17.04,0l12.69,12.33c2.37,2.3,3.7,5.46,3.7,8.76Z"/>
    </clipPath>
  </defs>
  <g id="Rare">
    <g id="body">
      <g>
        <rect class="cls-6" x="6.5" y="6.5" width="374" height="557" rx="26.5" ry="26.5"/>
        <path class="cls-11" d="M354,13c11.05,0,20,8.95,20,20v504c0,11.05-8.95,20-20,20H33c-11.05,0-20-8.95-20-20V33c0-11.05,8.95-20,20-20h321M354,0H33C14.8,0,0,14.8,0,33v504c0,18.2,14.8,33,33,33h321c18.2,0,33-14.8,33-33V33c0-18.2-14.8-33-33-33h0Z"/>
      </g>
      <g class="cls-9">
        <rect class="cls-7" x="13" y="13" width="361" height="544" rx="20" ry="20"/>
      </g>
    </g>
    <g id="circle">
      <circle class="cls-4" cx="193.5" cy="285.5" r="121.35"/>
      <circle class="cls-5" cx="193.5" cy="285.5" r="121.35"/>
      <circle class="cls-12" cx="193.5" cy="285.5" r="121.35"/>
    </g>
    <g>
      <path class="cls-15" d="M218.41,243.4v100.8c0,2.19-.59,4.34-1.7,6.22l-8.28,14c-6.71,11.36-23.15,11.36-29.86,0l-8.27-14c-1.11-1.88-1.7-4.03-1.7-6.22v-100.81c0-4.68,1.89-9.17,5.25-12.43l7.56-7.35c6.73-6.55,17.45-6.55,24.18,0l7.56,7.35c3.36,3.27,5.25,7.75,5.25,12.44Z"/>
      <g class="cls-16">
        <g>
          <rect class="cls-6" x="181.05" y="226.46" width="24.9" height="111.47"/>
          <rect class="cls-10" x="205.95" y="226.46" width="12.45" height="111.47"/>
          <rect class="cls-17" x="168.6" y="226.46" width="12.45" height="111.47"/>
          <polygon class="cls-2" points="193.5 380.07 181.05 337.93 205.95 337.93 193.5 380.07"/>
          <polygon class="cls-6" points="193.5 380.07 205.95 337.94 218.4 337.94 193.5 380.07"/>
          <polygon class="cls-3" points="193.5 380.07 181.05 337.94 168.6 337.94 193.5 380.07"/>
          <polygon class="cls-1" points="193.5 202.25 181.05 226.47 205.95 226.47 193.5 202.25"/>
          <polygon class="cls-14" points="193.5 202.25 205.95 226.46 218.4 226.46 193.5 202.25"/>
          <polygon class="cls-13" points="193.5 202.25 181.05 226.46 168.6 226.46 193.5 202.25"/>
        </g>
      </g>
    </g>
  </g>
</svg>