<?xml version="1.0" encoding="UTF-8"?>
<svg id="Layer_2" data-name="Layer 2" xmlns="http://www.w3.org/2000/svg" viewBox="0 0 118.81 132.11">
  <defs>
    <style>
      .cls-1 {
        fill: #fcfaee;
      }
    </style>
  </defs>
  <g id="settings">
    <path class="cls-1" d="M61.46.08c1.92.21,4.85,1.37,6.53,2.37,5.93,3.55,8.49,10.18,7.96,16.93,5.67,2.11,11.01,5.1,15.6,9.04,21.42-14.29,39.56,17.29,16.59,28.56,1,5.87,1.13,11.88.02,17.75,0,.31.19.46.38.66.6.63,3.17,1.77,4.27,2.69,9.47,7.93,7.38,23.15-4.04,27.95-6.1,2.56-11.85,1.24-17.21-2.26-4.61,3.92-9.94,6.91-15.6,9.04.47,6.45-1.72,12.7-7.19,16.41-10.43,7.09-24.84.35-25.87-12.21-.08-.92.25-3.96-.26-4.38-.28-.23-2.38-.82-3.02-1.11-4.46-2.07-8.63-4.55-12.38-7.75-6.46,4.49-14.78,5.04-21.11-.03-10.11-8.09-7.09-23.71,4.53-28.53-1.04-5.95-1.06-12-.05-17.95-.14-.52-3.69-2.39-4.48-3.03-8.87-7.13-7.97-21.21,1.85-27.02,6.41-3.79,13.27-2.81,19.26,1.21,3.74-3.2,7.92-5.68,12.38-7.75.63-.29,2.73-.88,3.02-1.11.51-.42.18-3.46.26-4.38.62-7.45,6.93-14.28,14.44-15.09,1.02-.11,3.1-.11,4.13,0ZM56.5,44.25c-8.52.87-16.13,7.82-18.33,15.97-5.66,20.93,19.11,36.6,35.53,22.62,16.53-14.06,4.88-40.85-17.2-38.6Z"/>
  </g>
</svg>