<?xml version="1.0" encoding="UTF-8"?>
<svg id="Layer_2" data-name="Layer 2" xmlns="http://www.w3.org/2000/svg" viewBox="0 0 123.91 123.74">
  <defs>
    <style>
      .cls-1 {
        fill: #fcfaee;
      }
    </style>
  </defs>
  <g id="sign_up" data-name="sign up">
    <path class="cls-1" d="M54.54,93.51c0-9.54,3.42-18.29,9.1-25.08-13.17-.51-26.6,1.06-38.94,5.68-9.58,3.58-21.83,10.93-24.15,21.73-.63,2.92-.68,10.9-.35,13.96.41,3.77,4.21,7.73,7.96,8.23h55.02c-5.4-6.71-8.65-15.24-8.65-24.52Z"/>
    <path class="cls-1" d="M93.68,63.28c-16.7,0-30.23,13.53-30.23,30.23s13.53,30.23,30.23,30.23,30.23-13.53,30.23-30.23-13.53-30.23-30.23-30.23ZM103.71,97.87h-5.67v5.67c0,2.41-1.95,4.36-4.36,4.36h0c-2.41,0-4.36-1.95-4.36-4.36v-5.67h-5.67c-2.41,0-4.36-1.95-4.36-4.36s1.95-4.36,4.36-4.36h5.67v-5.67c0-2.41,1.95-4.36,4.36-4.36h0c2.41,0,4.36,1.95,4.36,4.36v5.67h5.67c2.41,0,4.36,1.95,4.36,4.36s-1.95,4.36-4.36,4.36Z"/>
    <circle class="cls-1" cx="59.19" cy="31.64" r="31.64"/>
  </g>
</svg>