<?xml version="1.0" encoding="UTF-8"?>
<svg id="Layer_2" data-name="Layer 2" xmlns="http://www.w3.org/2000/svg" viewBox="0 0 172.62 83.29">
  <defs>
    <style>
      .cls-1 {
        fill: #be8465;
      }

      .cls-2 {
        fill: #cc9d82;
      }

      .cls-3 {
        fill: #373f36;
      }

      .cls-4 {
        fill: #ebd3bc;
      }

      .cls-5 {
        fill: #3f3636;
      }

      .cls-6 {
        fill: #3f3d36;
      }
    </style>
  </defs>
  <g id="traffic_pill_0" data-name="traffic pill 0">
    <g>
      <rect class="cls-4" x="0" y="0" width="172.62" height="83.29" rx="41.65" ry="41.65"/>
      <g>
        <g>
          <g>
            <circle class="cls-1" cx="39.67" cy="43.61" r="21.03"/>
            <circle class="cls-1" cx="39.67" cy="43.26" r="21.03"/>
            <circle class="cls-1" cx="39.67" cy="42.9" r="21.03"/>
            <circle class="cls-1" cx="39.67" cy="42.54" r="21.03"/>
            <circle class="cls-1" cx="39.67" cy="42.18" r="21.03"/>
            <circle class="cls-1" cx="39.67" cy="41.83" r="21.03"/>
            <circle class="cls-1" cx="39.67" cy="41.47" r="21.03"/>
            <circle class="cls-1" cx="39.67" cy="41.11" r="21.03"/>
            <circle class="cls-1" cx="39.67" cy="40.75" r="21.03"/>
            <circle class="cls-1" cx="39.67" cy="40.39" r="21.03"/>
            <circle class="cls-1" cx="39.67" cy="40.04" r="21.03"/>
            <circle class="cls-1" cx="39.67" cy="39.68" r="21.03"/>
          </g>
          <circle class="cls-2" cx="39.67" cy="39.68" r="21.03"/>
          <circle class="cls-3" cx="39.67" cy="39.68" r="17.22"/>
        </g>
        <g>
          <g>
            <circle class="cls-1" cx="86.31" cy="43.61" r="21.03"/>
            <circle class="cls-1" cx="86.31" cy="43.26" r="21.03"/>
            <circle class="cls-1" cx="86.31" cy="42.9" r="21.03"/>
            <circle class="cls-1" cx="86.31" cy="42.54" r="21.03"/>
            <circle class="cls-1" cx="86.31" cy="42.18" r="21.03"/>
            <circle class="cls-1" cx="86.31" cy="41.83" r="21.03"/>
            <circle class="cls-1" cx="86.31" cy="41.47" r="21.03"/>
            <circle class="cls-1" cx="86.31" cy="41.11" r="21.03"/>
            <circle class="cls-1" cx="86.31" cy="40.75" r="21.03"/>
            <circle class="cls-1" cx="86.31" cy="40.39" r="21.03"/>
            <circle class="cls-1" cx="86.31" cy="40.04" r="21.03"/>
            <circle class="cls-1" cx="86.31" cy="39.68" r="21.03"/>
          </g>
          <circle class="cls-2" cx="86.31" cy="39.68" r="21.03"/>
          <circle class="cls-6" cx="86.31" cy="39.68" r="17.22"/>
        </g>
        <g>
          <g>
            <circle class="cls-1" cx="132.95" cy="43.61" r="21.03"/>
            <circle class="cls-1" cx="132.95" cy="43.26" r="21.03"/>
            <circle class="cls-1" cx="132.95" cy="42.9" r="21.03"/>
            <circle class="cls-1" cx="132.95" cy="42.54" r="21.03"/>
            <circle class="cls-1" cx="132.95" cy="42.18" r="21.03"/>
            <circle class="cls-1" cx="132.95" cy="41.83" r="21.03"/>
            <circle class="cls-1" cx="132.95" cy="41.47" r="21.03"/>
            <circle class="cls-1" cx="132.95" cy="41.11" r="21.03"/>
            <circle class="cls-1" cx="132.95" cy="40.75" r="21.03"/>
            <circle class="cls-1" cx="132.95" cy="40.39" r="21.03"/>
            <circle class="cls-1" cx="132.95" cy="40.04" r="21.03"/>
            <circle class="cls-1" cx="132.95" cy="39.68" r="21.03"/>
          </g>
          <circle class="cls-2" cx="132.95" cy="39.68" r="21.03"/>
          <circle class="cls-5" cx="132.95" cy="39.68" r="17.22"/>
        </g>
      </g>
    </g>
  </g>
</svg>