<?xml version="1.0" encoding="UTF-8"?>
<svg id="Layer_2" data-name="Layer 2" xmlns="http://www.w3.org/2000/svg" viewBox="0 0 82.66 123.52">
  <defs>
    <style>
      .cls-1 {
        fill: #e76531;
      }
    </style>
  </defs>
  <g id="transmission">
    <g>
      <path class="cls-1" d="M.29,76.95c.63-6.84,7.3-15.2,14.53-15.2h10.93c-1.68,2.34-2.47,4.76-3.2,7.52-2.1,8.02-3.45,16.43-5.38,24.51-1.08,7.6,4.43,14.49,12.05,15.02,8.12.57,16.96-.39,25.16-.08,7.32-1.17,11.92-7.34,11.2-14.74-.8-8.33-4.56-17.84-5.8-26.25-.55-2.18-1.66-4.09-2.81-5.98h10.93c.44,0,2.14.5,2.7.66,6.95,1.99,11.33,8.26,11.82,15.38.7,10.29-.28,21.68-.3,32.01-1.26,7.48-7.44,13-14.93,13.71l-52.08-.04c-8.04-.97-14.04-7.35-14.8-15.41.68-10.01-.91-21.25,0-31.12Z"/>
      <path class="cls-1" d="M55.04,0c3.16.84,6.05,3.11,6.62,6.5s.43,13.4.12,17.03c-.33,3.81-3.14,6.43-6.72,7.24-1.41.32-2.77-.23-3.63,1.42l-3.6,16.04-12.82.02-3.73-16.07c-.89-1.71-3.2-1.2-4.94-1.79-2.72-.92-5.02-3.54-5.37-6.43s-.41-15.46.23-18.05c.79-3.18,3.47-5.09,6.47-5.93h27.37Z"/>
      <path class="cls-1" d="M53.59,74.78l4.32,20.15c.45,3.13-1.6,5.75-4.68,6.15-7.58-.52-16.07.69-23.54,0-3.35-.31-5.41-3.04-4.88-6.37l4.29-19.93c1.69,2.25,3.19,4.11,5.76,5.43,7.01,3.6,14.57.93,18.73-5.43Z"/>
      <path class="cls-1" d="M47.59,55.96v12.42c0,2.84-3.13,5.55-5.87,5.68-3.05.14-6.61-2.47-6.61-5.68v-12.42h12.49Z"/>
      <path class="cls-1" d="M17.1,8.93v13.03c-4.05-.15-8.62-1.76-8.55-6.59.07-4.76,4.54-6.26,8.55-6.43Z"/>
    </g>
  </g>
</svg>